<mxfile host="app.diagrams.net" modified="2023-06-29T03:51:55.624Z" agent="Mozilla/5.0 (Windows NT 10.0; Win64; x64) AppleWebKit/537.36 (KHTML, like Gecko) Chrome/114.0.0.0 Safari/537.36" etag="re4yLr4R7bTy4CgZfNLj" version="21.5.2" type="device">
  <diagram id="6a731a19-8d31-9384-78a2-239565b7b9f0" name="Page-1">
    <mxGraphModel dx="4669" dy="2910" grid="1" gridSize="10" guides="1" tooltips="1" connect="1" arrows="1" fold="1" page="1" pageScale="1" pageWidth="1169" pageHeight="827" background="none" math="0" shadow="0">
      <root>
        <mxCell id="0" />
        <mxCell id="1" parent="0" />
        <mxCell id="1749" value="STK 2" style="rounded=1;whiteSpace=wrap;html=1;shadow=0;labelBackgroundColor=none;strokeColor=none;strokeWidth=3;fillColor=#2F5B7C;fontFamily=Helvetica;fontSize=16;fontColor=#FFFFFF;align=center;fontStyle=1;spacing=5;arcSize=7;perimeterSpacing=2;" parent="1" vertex="1">
          <mxGeometry x="-50" y="-60" width="310" height="40" as="geometry" />
        </mxCell>
        <mxCell id="1753" value="WALL" style="rounded=1;whiteSpace=wrap;html=1;shadow=0;labelBackgroundColor=none;strokeColor=none;strokeWidth=3;fillColor=#e85642;fontFamily=Helvetica;fontSize=14;fontColor=#FFFFFF;align=center;spacing=5;fontStyle=1;arcSize=7;perimeterSpacing=2;" parent="1" vertex="1">
          <mxGeometry x="330" y="14.5" width="60" height="45.5" as="geometry" />
        </mxCell>
        <mxCell id="1767" value="110003" style="rounded=1;whiteSpace=wrap;html=1;shadow=0;labelBackgroundColor=none;strokeColor=none;strokeWidth=3;fillColor=#66FF66;fontFamily=Helvetica;fontSize=14;fontColor=#FFFFFF;align=center;spacing=5;arcSize=7;perimeterSpacing=2;" parent="1" vertex="1">
          <mxGeometry x="100" y="-10" width="90" height="30" as="geometry" />
        </mxCell>
        <mxCell id="1769" value="110001" style="rounded=1;whiteSpace=wrap;html=1;shadow=0;labelBackgroundColor=none;strokeColor=none;strokeWidth=3;fillColor=#66FF66;fontFamily=Helvetica;fontSize=14;fontColor=#FFFFFF;align=center;spacing=5;arcSize=7;perimeterSpacing=2;" parent="1" vertex="1">
          <mxGeometry y="-10" width="86" height="30" as="geometry" />
        </mxCell>
        <mxCell id="erhcgMFxfJ_fj9Iem5pS-1779" value="110002" style="rounded=1;whiteSpace=wrap;html=1;shadow=0;labelBackgroundColor=none;strokeColor=none;strokeWidth=3;fillColor=#66FF66;fontFamily=Helvetica;fontSize=14;fontColor=#FFFFFF;align=center;spacing=5;arcSize=7;perimeterSpacing=2;" vertex="1" parent="1">
          <mxGeometry x="100" y="30" width="90" height="30" as="geometry" />
        </mxCell>
        <mxCell id="erhcgMFxfJ_fj9Iem5pS-1780" value="110000" style="rounded=1;whiteSpace=wrap;html=1;shadow=0;labelBackgroundColor=none;strokeColor=none;strokeWidth=3;fillColor=#66FF66;fontFamily=Helvetica;fontSize=14;fontColor=#FFFFFF;align=center;spacing=5;arcSize=7;perimeterSpacing=2;" vertex="1" parent="1">
          <mxGeometry y="30" width="86" height="30" as="geometry" />
        </mxCell>
        <mxCell id="erhcgMFxfJ_fj9Iem5pS-1781" value="110004" style="rounded=1;whiteSpace=wrap;html=1;shadow=0;labelBackgroundColor=none;strokeColor=none;strokeWidth=3;fillColor=#f5af58;fontFamily=Helvetica;fontSize=14;fontColor=#FFFFFF;align=center;spacing=5;arcSize=7;perimeterSpacing=2;" vertex="1" parent="1">
          <mxGeometry y="70" width="86" height="30" as="geometry" />
        </mxCell>
        <mxCell id="erhcgMFxfJ_fj9Iem5pS-1782" value="110005" style="rounded=1;whiteSpace=wrap;html=1;shadow=0;labelBackgroundColor=none;strokeColor=none;strokeWidth=3;fillColor=#f5af58;fontFamily=Helvetica;fontSize=14;fontColor=#FFFFFF;align=center;spacing=5;arcSize=7;perimeterSpacing=2;" vertex="1" parent="1">
          <mxGeometry x="100" y="70" width="86" height="30" as="geometry" />
        </mxCell>
        <mxCell id="erhcgMFxfJ_fj9Iem5pS-1783" value="110006" style="rounded=1;whiteSpace=wrap;html=1;shadow=0;labelBackgroundColor=none;strokeColor=none;strokeWidth=3;fillColor=#f5af58;fontFamily=Helvetica;fontSize=14;fontColor=#FFFFFF;align=center;spacing=5;arcSize=7;perimeterSpacing=2;" vertex="1" parent="1">
          <mxGeometry x="209" y="70" width="86" height="30" as="geometry" />
        </mxCell>
        <mxCell id="erhcgMFxfJ_fj9Iem5pS-1784" value="110007" style="rounded=1;whiteSpace=wrap;html=1;shadow=0;labelBackgroundColor=none;strokeColor=none;strokeWidth=3;fillColor=#f5af58;fontFamily=Helvetica;fontSize=14;fontColor=#FFFFFF;align=center;spacing=5;arcSize=7;perimeterSpacing=2;" vertex="1" parent="1">
          <mxGeometry x="320" y="70" width="86" height="30" as="geometry" />
        </mxCell>
        <mxCell id="erhcgMFxfJ_fj9Iem5pS-1785" value="110008" style="rounded=1;whiteSpace=wrap;html=1;shadow=0;labelBackgroundColor=none;strokeColor=none;strokeWidth=3;fillColor=#f5af58;fontFamily=Helvetica;fontSize=14;fontColor=#FFFFFF;align=center;spacing=5;arcSize=7;perimeterSpacing=2;" vertex="1" parent="1">
          <mxGeometry x="420" y="60" width="86" height="30" as="geometry" />
        </mxCell>
        <mxCell id="erhcgMFxfJ_fj9Iem5pS-1786" value="110009" style="rounded=1;whiteSpace=wrap;html=1;shadow=0;labelBackgroundColor=none;strokeColor=none;strokeWidth=3;fillColor=#f5af58;fontFamily=Helvetica;fontSize=14;fontColor=#FFFFFF;align=center;spacing=5;arcSize=7;perimeterSpacing=2;" vertex="1" parent="1">
          <mxGeometry x="480" y="20" width="86" height="30" as="geometry" />
        </mxCell>
        <mxCell id="erhcgMFxfJ_fj9Iem5pS-1787" value="110010" style="rounded=1;whiteSpace=wrap;html=1;shadow=0;labelBackgroundColor=none;strokeColor=none;strokeWidth=3;fillColor=#f5af58;fontFamily=Helvetica;fontSize=14;fontColor=#FFFFFF;align=center;spacing=5;arcSize=7;perimeterSpacing=2;" vertex="1" parent="1">
          <mxGeometry x="541" y="-20" width="86" height="30" as="geometry" />
        </mxCell>
        <mxCell id="erhcgMFxfJ_fj9Iem5pS-1788" value="110011" style="rounded=1;whiteSpace=wrap;html=1;shadow=0;labelBackgroundColor=none;strokeColor=none;strokeWidth=3;fillColor=#f5af58;fontFamily=Helvetica;fontSize=14;fontColor=#FFFFFF;align=center;spacing=5;arcSize=7;perimeterSpacing=2;" vertex="1" parent="1">
          <mxGeometry x="640" y="-70" width="90" height="35" as="geometry" />
        </mxCell>
        <mxCell id="erhcgMFxfJ_fj9Iem5pS-1790" value="110012" style="rounded=1;whiteSpace=wrap;html=1;shadow=0;labelBackgroundColor=none;strokeColor=none;strokeWidth=3;fillColor=#f5af58;fontFamily=Helvetica;fontSize=14;fontColor=#FFFFFF;align=center;spacing=5;arcSize=7;perimeterSpacing=2;" vertex="1" parent="1">
          <mxGeometry x="770" y="-95" width="90" height="35" as="geometry" />
        </mxCell>
        <mxCell id="erhcgMFxfJ_fj9Iem5pS-1791" value="110011" style="rounded=1;whiteSpace=wrap;html=1;shadow=0;labelBackgroundColor=none;strokeColor=none;strokeWidth=3;fillColor=#f5af58;fontFamily=Helvetica;fontSize=14;fontColor=#FFFFFF;align=center;spacing=5;arcSize=7;perimeterSpacing=2;" vertex="1" parent="1">
          <mxGeometry x="870" y="-95" width="90" height="35" as="geometry" />
        </mxCell>
        <mxCell id="erhcgMFxfJ_fj9Iem5pS-1792" value="110003" style="rounded=1;whiteSpace=wrap;html=1;shadow=0;labelBackgroundColor=none;strokeColor=none;strokeWidth=3;fillColor=#66FF66;fontFamily=Helvetica;fontSize=14;fontColor=#FFFFFF;align=center;spacing=5;arcSize=7;perimeterSpacing=2;" vertex="1" parent="1">
          <mxGeometry x="1000" y="115" width="90" height="30" as="geometry" />
        </mxCell>
        <mxCell id="erhcgMFxfJ_fj9Iem5pS-1793" value="110001" style="rounded=1;whiteSpace=wrap;html=1;shadow=0;labelBackgroundColor=none;strokeColor=none;strokeWidth=3;fillColor=#66FF66;fontFamily=Helvetica;fontSize=14;fontColor=#FFFFFF;align=center;spacing=5;arcSize=7;perimeterSpacing=2;" vertex="1" parent="1">
          <mxGeometry x="900" y="115" width="86" height="30" as="geometry" />
        </mxCell>
        <mxCell id="erhcgMFxfJ_fj9Iem5pS-1794" value="110003" style="rounded=1;whiteSpace=wrap;html=1;shadow=0;labelBackgroundColor=none;strokeColor=none;strokeWidth=3;fillColor=#66FF66;fontFamily=Helvetica;fontSize=14;fontColor=#FFFFFF;align=center;spacing=5;arcSize=7;perimeterSpacing=2;" vertex="1" parent="1">
          <mxGeometry x="1000" y="165" width="90" height="30" as="geometry" />
        </mxCell>
        <mxCell id="erhcgMFxfJ_fj9Iem5pS-1795" value="110001" style="rounded=1;whiteSpace=wrap;html=1;shadow=0;labelBackgroundColor=none;strokeColor=none;strokeWidth=3;fillColor=#66FF66;fontFamily=Helvetica;fontSize=14;fontColor=#FFFFFF;align=center;spacing=5;arcSize=7;perimeterSpacing=2;" vertex="1" parent="1">
          <mxGeometry x="900" y="165" width="86" height="30" as="geometry" />
        </mxCell>
        <mxCell id="erhcgMFxfJ_fj9Iem5pS-1796" value="110003" style="rounded=1;whiteSpace=wrap;html=1;shadow=0;labelBackgroundColor=none;strokeColor=none;strokeWidth=3;fillColor=#66FF66;fontFamily=Helvetica;fontSize=14;fontColor=#FFFFFF;align=center;spacing=5;arcSize=7;perimeterSpacing=2;" vertex="1" parent="1">
          <mxGeometry x="1000" y="215" width="90" height="30" as="geometry" />
        </mxCell>
        <mxCell id="erhcgMFxfJ_fj9Iem5pS-1797" value="110001" style="rounded=1;whiteSpace=wrap;html=1;shadow=0;labelBackgroundColor=none;strokeColor=none;strokeWidth=3;fillColor=#66FF66;fontFamily=Helvetica;fontSize=14;fontColor=#FFFFFF;align=center;spacing=5;arcSize=7;perimeterSpacing=2;" vertex="1" parent="1">
          <mxGeometry x="900" y="215" width="86" height="30" as="geometry" />
        </mxCell>
        <mxCell id="erhcgMFxfJ_fj9Iem5pS-1798" value="110011" style="rounded=1;whiteSpace=wrap;html=1;shadow=0;labelBackgroundColor=none;strokeColor=none;strokeWidth=3;fillColor=#f5af58;fontFamily=Helvetica;fontSize=14;fontColor=#FFFFFF;align=center;spacing=5;arcSize=7;perimeterSpacing=2;" vertex="1" parent="1">
          <mxGeometry x="650" y="100" width="90" height="35" as="geometry" />
        </mxCell>
        <mxCell id="erhcgMFxfJ_fj9Iem5pS-1799" value="110011" style="rounded=1;whiteSpace=wrap;html=1;shadow=0;labelBackgroundColor=none;strokeColor=none;strokeWidth=3;fillColor=#f5af58;fontFamily=Helvetica;fontSize=14;fontColor=#FFFFFF;align=center;spacing=5;arcSize=7;perimeterSpacing=2;" vertex="1" parent="1">
          <mxGeometry x="770" y="110" width="90" height="35" as="geometry" />
        </mxCell>
        <mxCell id="erhcgMFxfJ_fj9Iem5pS-1800" value="110011" style="rounded=1;whiteSpace=wrap;html=1;shadow=0;labelBackgroundColor=none;strokeColor=none;strokeWidth=3;fillColor=#f5af58;fontFamily=Helvetica;fontSize=14;fontColor=#FFFFFF;align=center;spacing=5;arcSize=7;perimeterSpacing=2;" vertex="1" parent="1">
          <mxGeometry x="770" y="175" width="90" height="35" as="geometry" />
        </mxCell>
        <mxCell id="erhcgMFxfJ_fj9Iem5pS-1801" value="110011" style="rounded=1;whiteSpace=wrap;html=1;shadow=0;labelBackgroundColor=none;strokeColor=none;strokeWidth=3;fillColor=#f5af58;fontFamily=Helvetica;fontSize=14;fontColor=#FFFFFF;align=center;spacing=5;arcSize=7;perimeterSpacing=2;" vertex="1" parent="1">
          <mxGeometry x="770" y="225.5" width="90" height="35" as="geometry" />
        </mxCell>
        <mxCell id="erhcgMFxfJ_fj9Iem5pS-1802" value="110011" style="rounded=1;whiteSpace=wrap;html=1;shadow=0;labelBackgroundColor=none;strokeColor=none;strokeWidth=3;fillColor=#f5af58;fontFamily=Helvetica;fontSize=14;fontColor=#FFFFFF;align=center;spacing=5;arcSize=7;perimeterSpacing=2;" vertex="1" parent="1">
          <mxGeometry x="986" y="-95" width="90" height="35" as="geometry" />
        </mxCell>
        <mxCell id="erhcgMFxfJ_fj9Iem5pS-1803" value="110011" style="rounded=1;whiteSpace=wrap;html=1;shadow=0;labelBackgroundColor=none;strokeColor=none;strokeWidth=3;fillColor=#f5af58;fontFamily=Helvetica;fontSize=14;fontColor=#FFFFFF;align=center;spacing=5;arcSize=7;perimeterSpacing=2;" vertex="1" parent="1">
          <mxGeometry x="1110" y="-95" width="90" height="35" as="geometry" />
        </mxCell>
        <mxCell id="erhcgMFxfJ_fj9Iem5pS-1804" value="110016" style="rounded=1;whiteSpace=wrap;html=1;shadow=0;labelBackgroundColor=none;strokeColor=none;strokeWidth=3;fillColor=#f5af58;fontFamily=Helvetica;fontSize=14;fontColor=#FFFFFF;align=center;spacing=5;arcSize=7;perimeterSpacing=2;" vertex="1" parent="1">
          <mxGeometry x="1230" y="-95" width="90" height="35" as="geometry" />
        </mxCell>
        <mxCell id="erhcgMFxfJ_fj9Iem5pS-1805" value="110017" style="rounded=1;whiteSpace=wrap;html=1;shadow=0;labelBackgroundColor=none;strokeColor=none;strokeWidth=3;fillColor=#f5af58;fontFamily=Helvetica;fontSize=14;fontColor=#FFFFFF;align=center;spacing=5;arcSize=7;perimeterSpacing=2;" vertex="1" parent="1">
          <mxGeometry x="1346" y="-95" width="90" height="35" as="geometry" />
        </mxCell>
        <mxCell id="erhcgMFxfJ_fj9Iem5pS-1806" value="110018" style="rounded=1;whiteSpace=wrap;html=1;shadow=0;labelBackgroundColor=none;strokeColor=none;strokeWidth=3;fillColor=#f5af58;fontFamily=Helvetica;fontSize=14;fontColor=#FFFFFF;align=center;spacing=5;arcSize=7;perimeterSpacing=2;" vertex="1" parent="1">
          <mxGeometry x="1346" y="-12.5" width="90" height="35" as="geometry" />
        </mxCell>
        <mxCell id="erhcgMFxfJ_fj9Iem5pS-1807" value="110083" style="rounded=1;whiteSpace=wrap;html=1;shadow=0;labelBackgroundColor=none;strokeColor=none;strokeWidth=3;fillColor=#f5af58;fontFamily=Helvetica;fontSize=14;fontColor=#FFFFFF;align=center;spacing=5;arcSize=7;perimeterSpacing=2;" vertex="1" parent="1">
          <mxGeometry x="1470" y="-15" width="90" height="35" as="geometry" />
        </mxCell>
        <mxCell id="erhcgMFxfJ_fj9Iem5pS-1809" value="110011" style="rounded=1;whiteSpace=wrap;html=1;shadow=0;labelBackgroundColor=none;strokeColor=none;strokeWidth=3;fillColor=#f5af58;fontFamily=Helvetica;fontSize=14;fontColor=#FFFFFF;align=center;spacing=5;arcSize=7;perimeterSpacing=2;" vertex="1" parent="1">
          <mxGeometry x="1346" y="50" width="90" height="35" as="geometry" />
        </mxCell>
        <mxCell id="erhcgMFxfJ_fj9Iem5pS-1810" value="110011" style="rounded=1;whiteSpace=wrap;html=1;shadow=0;labelBackgroundColor=none;strokeColor=none;strokeWidth=3;fillColor=#f5af58;fontFamily=Helvetica;fontSize=14;fontColor=#FFFFFF;align=center;spacing=5;arcSize=7;perimeterSpacing=2;" vertex="1" parent="1">
          <mxGeometry x="1346" y="110" width="90" height="35" as="geometry" />
        </mxCell>
        <mxCell id="erhcgMFxfJ_fj9Iem5pS-1811" value="110011" style="rounded=1;whiteSpace=wrap;html=1;shadow=0;labelBackgroundColor=none;strokeColor=none;strokeWidth=3;fillColor=#f5af58;fontFamily=Helvetica;fontSize=14;fontColor=#FFFFFF;align=center;spacing=5;arcSize=7;perimeterSpacing=2;" vertex="1" parent="1">
          <mxGeometry x="1346" y="172.5" width="90" height="35" as="geometry" />
        </mxCell>
        <mxCell id="erhcgMFxfJ_fj9Iem5pS-1812" value="110018" style="rounded=1;whiteSpace=wrap;html=1;shadow=0;labelBackgroundColor=none;strokeColor=none;strokeWidth=3;fillColor=#f5af58;fontFamily=Helvetica;fontSize=14;fontColor=#FFFFFF;align=center;spacing=5;arcSize=7;perimeterSpacing=2;" vertex="1" parent="1">
          <mxGeometry x="1346" y="225.5" width="90" height="35" as="geometry" />
        </mxCell>
        <mxCell id="erhcgMFxfJ_fj9Iem5pS-1813" value="110023" style="rounded=1;whiteSpace=wrap;html=1;shadow=0;labelBackgroundColor=none;strokeColor=none;strokeWidth=3;fillColor=#f5af58;fontFamily=Helvetica;fontSize=14;fontColor=#FFFFFF;align=center;spacing=5;arcSize=7;perimeterSpacing=2;" vertex="1" parent="1">
          <mxGeometry x="1346" y="288" width="90" height="35" as="geometry" />
        </mxCell>
        <mxCell id="erhcgMFxfJ_fj9Iem5pS-1814" value="110011" style="rounded=1;whiteSpace=wrap;html=1;shadow=0;labelBackgroundColor=none;strokeColor=none;strokeWidth=3;fillColor=#f5af58;fontFamily=Helvetica;fontSize=14;fontColor=#FFFFFF;align=center;spacing=5;arcSize=7;perimeterSpacing=2;" vertex="1" parent="1">
          <mxGeometry x="1346" y="348" width="90" height="35" as="geometry" />
        </mxCell>
        <mxCell id="erhcgMFxfJ_fj9Iem5pS-1815" value="110011" style="rounded=1;whiteSpace=wrap;html=1;shadow=0;labelBackgroundColor=none;strokeColor=none;strokeWidth=3;fillColor=#f5af58;fontFamily=Helvetica;fontSize=14;fontColor=#FFFFFF;align=center;spacing=5;arcSize=7;perimeterSpacing=2;" vertex="1" parent="1">
          <mxGeometry x="1346" y="410.5" width="90" height="35" as="geometry" />
        </mxCell>
        <mxCell id="erhcgMFxfJ_fj9Iem5pS-1816" value="110018" style="rounded=1;whiteSpace=wrap;html=1;shadow=0;labelBackgroundColor=none;strokeColor=none;strokeWidth=3;fillColor=#f5af58;fontFamily=Helvetica;fontSize=14;fontColor=#FFFFFF;align=center;spacing=5;arcSize=7;perimeterSpacing=2;" vertex="1" parent="1">
          <mxGeometry x="1346" y="470" width="90" height="35" as="geometry" />
        </mxCell>
        <mxCell id="erhcgMFxfJ_fj9Iem5pS-1817" value="110011" style="rounded=1;whiteSpace=wrap;html=1;shadow=0;labelBackgroundColor=none;strokeColor=none;strokeWidth=3;fillColor=#f5af58;fontFamily=Helvetica;fontSize=14;fontColor=#FFFFFF;align=center;spacing=5;arcSize=7;perimeterSpacing=2;" vertex="1" parent="1">
          <mxGeometry x="1346" y="532.5" width="90" height="35" as="geometry" />
        </mxCell>
        <mxCell id="erhcgMFxfJ_fj9Iem5pS-1818" value="110028" style="rounded=1;whiteSpace=wrap;html=1;shadow=0;labelBackgroundColor=none;strokeColor=none;strokeWidth=3;fillColor=#f5af58;fontFamily=Helvetica;fontSize=14;fontColor=#FFFFFF;align=center;spacing=5;arcSize=7;perimeterSpacing=2;" vertex="1" parent="1">
          <mxGeometry x="1346" y="592.5" width="90" height="35" as="geometry" />
        </mxCell>
        <mxCell id="erhcgMFxfJ_fj9Iem5pS-1819" value="110011" style="rounded=1;whiteSpace=wrap;html=1;shadow=0;labelBackgroundColor=none;strokeColor=none;strokeWidth=3;fillColor=#f5af58;fontFamily=Helvetica;fontSize=14;fontColor=#FFFFFF;align=center;spacing=5;arcSize=7;perimeterSpacing=2;" vertex="1" parent="1">
          <mxGeometry x="1346" y="655" width="90" height="35" as="geometry" />
        </mxCell>
        <mxCell id="erhcgMFxfJ_fj9Iem5pS-1820" value="110018" style="rounded=1;whiteSpace=wrap;html=1;shadow=0;labelBackgroundColor=none;strokeColor=none;strokeWidth=3;fillColor=#f5af58;fontFamily=Helvetica;fontSize=14;fontColor=#FFFFFF;align=center;spacing=5;arcSize=7;perimeterSpacing=2;" vertex="1" parent="1">
          <mxGeometry x="1346" y="706" width="90" height="35" as="geometry" />
        </mxCell>
        <mxCell id="erhcgMFxfJ_fj9Iem5pS-1821" value="110011" style="rounded=1;whiteSpace=wrap;html=1;shadow=0;labelBackgroundColor=none;strokeColor=none;strokeWidth=3;fillColor=#f5af58;fontFamily=Helvetica;fontSize=14;fontColor=#FFFFFF;align=center;spacing=5;arcSize=7;perimeterSpacing=2;" vertex="1" parent="1">
          <mxGeometry x="1346" y="768.5" width="90" height="35" as="geometry" />
        </mxCell>
        <mxCell id="erhcgMFxfJ_fj9Iem5pS-1822" value="110011" style="rounded=1;whiteSpace=wrap;html=1;shadow=0;labelBackgroundColor=none;strokeColor=none;strokeWidth=3;fillColor=#f5af58;fontFamily=Helvetica;fontSize=14;fontColor=#FFFFFF;align=center;spacing=5;arcSize=7;perimeterSpacing=2;" vertex="1" parent="1">
          <mxGeometry x="1346" y="828.5" width="90" height="35" as="geometry" />
        </mxCell>
        <mxCell id="erhcgMFxfJ_fj9Iem5pS-1823" value="110011" style="rounded=1;whiteSpace=wrap;html=1;shadow=0;labelBackgroundColor=none;strokeColor=none;strokeWidth=3;fillColor=#f5af58;fontFamily=Helvetica;fontSize=14;fontColor=#FFFFFF;align=center;spacing=5;arcSize=7;perimeterSpacing=2;" vertex="1" parent="1">
          <mxGeometry x="1346" y="891" width="90" height="35" as="geometry" />
        </mxCell>
        <mxCell id="erhcgMFxfJ_fj9Iem5pS-1824" value="110079" style="rounded=1;whiteSpace=wrap;html=1;shadow=0;labelBackgroundColor=none;strokeColor=none;strokeWidth=3;fillColor=#f5af58;fontFamily=Helvetica;fontSize=14;fontColor=#FFFFFF;align=center;spacing=5;arcSize=7;perimeterSpacing=2;" vertex="1" parent="1">
          <mxGeometry x="1470" y="253" width="90" height="35" as="geometry" />
        </mxCell>
        <mxCell id="erhcgMFxfJ_fj9Iem5pS-1825" value="110023" style="rounded=1;whiteSpace=wrap;html=1;shadow=0;labelBackgroundColor=none;strokeColor=none;strokeWidth=3;fillColor=#f5af58;fontFamily=Helvetica;fontSize=14;fontColor=#FFFFFF;align=center;spacing=5;arcSize=7;perimeterSpacing=2;" vertex="1" parent="1">
          <mxGeometry x="1470" y="195" width="90" height="35" as="geometry" />
        </mxCell>
        <mxCell id="erhcgMFxfJ_fj9Iem5pS-1826" value="110023" style="rounded=1;whiteSpace=wrap;html=1;shadow=0;labelBackgroundColor=none;strokeColor=none;strokeWidth=3;fillColor=#f5af58;fontFamily=Helvetica;fontSize=14;fontColor=#FFFFFF;align=center;spacing=5;arcSize=7;perimeterSpacing=2;" vertex="1" parent="1">
          <mxGeometry x="1470" y="137.5" width="90" height="35" as="geometry" />
        </mxCell>
        <mxCell id="erhcgMFxfJ_fj9Iem5pS-1827" value="110023" style="rounded=1;whiteSpace=wrap;html=1;shadow=0;labelBackgroundColor=none;strokeColor=none;strokeWidth=3;fillColor=#f5af58;fontFamily=Helvetica;fontSize=14;fontColor=#FFFFFF;align=center;spacing=5;arcSize=7;perimeterSpacing=2;" vertex="1" parent="1">
          <mxGeometry x="1470" y="70" width="90" height="35" as="geometry" />
        </mxCell>
        <mxCell id="erhcgMFxfJ_fj9Iem5pS-1828" value="110078" style="rounded=1;whiteSpace=wrap;html=1;shadow=0;labelBackgroundColor=none;strokeColor=none;strokeWidth=3;fillColor=#f5af58;fontFamily=Helvetica;fontSize=14;fontColor=#FFFFFF;align=center;spacing=5;arcSize=7;perimeterSpacing=2;" vertex="1" parent="1">
          <mxGeometry x="1490" y="634.5" width="90" height="35" as="geometry" />
        </mxCell>
        <mxCell id="erhcgMFxfJ_fj9Iem5pS-1829" value="110079" style="rounded=1;whiteSpace=wrap;html=1;shadow=0;labelBackgroundColor=none;strokeColor=none;strokeWidth=3;fillColor=#f5af58;fontFamily=Helvetica;fontSize=14;fontColor=#FFFFFF;align=center;spacing=5;arcSize=7;perimeterSpacing=2;" vertex="1" parent="1">
          <mxGeometry x="1490" y="902.5" width="90" height="35" as="geometry" />
        </mxCell>
        <mxCell id="erhcgMFxfJ_fj9Iem5pS-1830" value="110023" style="rounded=1;whiteSpace=wrap;html=1;shadow=0;labelBackgroundColor=none;strokeColor=none;strokeWidth=3;fillColor=#f5af58;fontFamily=Helvetica;fontSize=14;fontColor=#FFFFFF;align=center;spacing=5;arcSize=7;perimeterSpacing=2;" vertex="1" parent="1">
          <mxGeometry x="1490" y="844.5" width="90" height="35" as="geometry" />
        </mxCell>
        <mxCell id="erhcgMFxfJ_fj9Iem5pS-1831" value="110023" style="rounded=1;whiteSpace=wrap;html=1;shadow=0;labelBackgroundColor=none;strokeColor=none;strokeWidth=3;fillColor=#f5af58;fontFamily=Helvetica;fontSize=14;fontColor=#FFFFFF;align=center;spacing=5;arcSize=7;perimeterSpacing=2;" vertex="1" parent="1">
          <mxGeometry x="1490" y="787" width="90" height="35" as="geometry" />
        </mxCell>
        <mxCell id="erhcgMFxfJ_fj9Iem5pS-1832" value="110023" style="rounded=1;whiteSpace=wrap;html=1;shadow=0;labelBackgroundColor=none;strokeColor=none;strokeWidth=3;fillColor=#f5af58;fontFamily=Helvetica;fontSize=14;fontColor=#FFFFFF;align=center;spacing=5;arcSize=7;perimeterSpacing=2;" vertex="1" parent="1">
          <mxGeometry x="1490" y="719.5" width="90" height="35" as="geometry" />
        </mxCell>
        <mxCell id="erhcgMFxfJ_fj9Iem5pS-1833" value="110011" style="rounded=1;whiteSpace=wrap;html=1;shadow=0;labelBackgroundColor=none;strokeColor=none;strokeWidth=3;fillColor=#f5af58;fontFamily=Helvetica;fontSize=14;fontColor=#FFFFFF;align=center;spacing=5;arcSize=7;perimeterSpacing=2;" vertex="1" parent="1">
          <mxGeometry x="1346" y="950" width="90" height="35" as="geometry" />
        </mxCell>
        <mxCell id="erhcgMFxfJ_fj9Iem5pS-1834" value="110018" style="rounded=1;whiteSpace=wrap;html=1;shadow=0;labelBackgroundColor=none;strokeColor=none;strokeWidth=3;fillColor=#f5af58;fontFamily=Helvetica;fontSize=14;fontColor=#FFFFFF;align=center;spacing=5;arcSize=7;perimeterSpacing=2;" vertex="1" parent="1">
          <mxGeometry x="1346" y="1001" width="90" height="35" as="geometry" />
        </mxCell>
        <mxCell id="erhcgMFxfJ_fj9Iem5pS-1835" value="110036" style="rounded=1;whiteSpace=wrap;html=1;shadow=0;labelBackgroundColor=none;strokeColor=none;strokeWidth=3;fillColor=#f5af58;fontFamily=Helvetica;fontSize=14;fontColor=#FFFFFF;align=center;spacing=5;arcSize=7;perimeterSpacing=2;" vertex="1" parent="1">
          <mxGeometry x="1346" y="1063.5" width="90" height="35" as="geometry" />
        </mxCell>
        <mxCell id="erhcgMFxfJ_fj9Iem5pS-1836" value="110037" style="rounded=1;whiteSpace=wrap;html=1;shadow=0;labelBackgroundColor=none;strokeColor=none;strokeWidth=3;fillColor=#f5af58;fontFamily=Helvetica;fontSize=14;fontColor=#FFFFFF;align=center;spacing=5;arcSize=7;perimeterSpacing=2;" vertex="1" parent="1">
          <mxGeometry x="1346" y="1123.5" width="90" height="35" as="geometry" />
        </mxCell>
        <mxCell id="erhcgMFxfJ_fj9Iem5pS-1837" value="110038" style="rounded=1;whiteSpace=wrap;html=1;shadow=0;labelBackgroundColor=none;strokeColor=none;strokeWidth=3;fillColor=#f5af58;fontFamily=Helvetica;fontSize=14;fontColor=#FFFFFF;align=center;spacing=5;arcSize=7;perimeterSpacing=2;" vertex="1" parent="1">
          <mxGeometry x="1220" y="1123.5" width="90" height="35" as="geometry" />
        </mxCell>
        <mxCell id="erhcgMFxfJ_fj9Iem5pS-1838" value="110079" style="rounded=1;whiteSpace=wrap;html=1;shadow=0;labelBackgroundColor=none;strokeColor=none;strokeWidth=3;fillColor=#f5af58;fontFamily=Helvetica;fontSize=14;fontColor=#FFFFFF;align=center;spacing=5;arcSize=7;perimeterSpacing=2;" vertex="1" parent="1">
          <mxGeometry x="1490" y="950" width="90" height="35" as="geometry" />
        </mxCell>
        <mxCell id="erhcgMFxfJ_fj9Iem5pS-1839" value="110072" style="rounded=1;whiteSpace=wrap;html=1;shadow=0;labelBackgroundColor=none;strokeColor=none;strokeWidth=3;fillColor=#f5af58;fontFamily=Helvetica;fontSize=14;fontColor=#FFFFFF;align=center;spacing=5;arcSize=7;perimeterSpacing=2;" vertex="1" parent="1">
          <mxGeometry x="1490" y="1010" width="90" height="35" as="geometry" />
        </mxCell>
        <mxCell id="erhcgMFxfJ_fj9Iem5pS-1840" value="110039" style="rounded=1;whiteSpace=wrap;html=1;shadow=0;labelBackgroundColor=none;strokeColor=none;strokeWidth=3;fillColor=#f5af58;fontFamily=Helvetica;fontSize=14;fontColor=#FFFFFF;align=center;spacing=5;arcSize=7;perimeterSpacing=2;" vertex="1" parent="1">
          <mxGeometry x="1110" y="1088.5" width="90" height="35" as="geometry" />
        </mxCell>
        <mxCell id="erhcgMFxfJ_fj9Iem5pS-1841" value="110071" style="rounded=1;whiteSpace=wrap;html=1;shadow=0;labelBackgroundColor=none;strokeColor=none;strokeWidth=3;fillColor=#f5af58;fontFamily=Helvetica;fontSize=14;fontColor=#FFFFFF;align=center;spacing=5;arcSize=7;perimeterSpacing=2;" vertex="1" parent="1">
          <mxGeometry x="1110" y="1170" width="90" height="35" as="geometry" />
        </mxCell>
        <mxCell id="erhcgMFxfJ_fj9Iem5pS-1842" value="110038" style="rounded=1;whiteSpace=wrap;html=1;shadow=0;labelBackgroundColor=none;strokeColor=none;strokeWidth=3;fillColor=#f5af58;fontFamily=Helvetica;fontSize=14;fontColor=#FFFFFF;align=center;spacing=5;arcSize=7;perimeterSpacing=2;" vertex="1" parent="1">
          <mxGeometry x="986" y="1170" width="90" height="35" as="geometry" />
        </mxCell>
        <mxCell id="erhcgMFxfJ_fj9Iem5pS-1843" value="110038" style="rounded=1;whiteSpace=wrap;html=1;shadow=0;labelBackgroundColor=none;strokeColor=none;strokeWidth=3;fillColor=#f5af58;fontFamily=Helvetica;fontSize=14;fontColor=#FFFFFF;align=center;spacing=5;arcSize=7;perimeterSpacing=2;" vertex="1" parent="1">
          <mxGeometry x="986" y="1088.5" width="90" height="35" as="geometry" />
        </mxCell>
        <mxCell id="erhcgMFxfJ_fj9Iem5pS-1844" value="110038" style="rounded=1;whiteSpace=wrap;html=1;shadow=0;labelBackgroundColor=none;strokeColor=none;strokeWidth=3;fillColor=#f5af58;fontFamily=Helvetica;fontSize=14;fontColor=#FFFFFF;align=center;spacing=5;arcSize=7;perimeterSpacing=2;" vertex="1" parent="1">
          <mxGeometry x="870" y="1170" width="90" height="35" as="geometry" />
        </mxCell>
        <mxCell id="erhcgMFxfJ_fj9Iem5pS-1845" value="110068" style="rounded=1;whiteSpace=wrap;html=1;shadow=0;labelBackgroundColor=none;strokeColor=none;strokeWidth=3;fillColor=#f5af58;fontFamily=Helvetica;fontSize=14;fontColor=#FFFFFF;align=center;spacing=5;arcSize=7;perimeterSpacing=2;" vertex="1" parent="1">
          <mxGeometry x="746" y="1170" width="90" height="35" as="geometry" />
        </mxCell>
        <mxCell id="erhcgMFxfJ_fj9Iem5pS-1846" value="110039" style="rounded=1;whiteSpace=wrap;html=1;shadow=0;labelBackgroundColor=none;strokeColor=none;strokeWidth=3;fillColor=#f5af58;fontFamily=Helvetica;fontSize=14;fontColor=#FFFFFF;align=center;spacing=5;arcSize=7;perimeterSpacing=2;" vertex="1" parent="1">
          <mxGeometry x="870" y="1088.5" width="90" height="35" as="geometry" />
        </mxCell>
        <mxCell id="erhcgMFxfJ_fj9Iem5pS-1847" value="110042" style="rounded=1;whiteSpace=wrap;html=1;shadow=0;labelBackgroundColor=none;strokeColor=none;strokeWidth=3;fillColor=#f5af58;fontFamily=Helvetica;fontSize=14;fontColor=#FFFFFF;align=center;spacing=5;arcSize=7;perimeterSpacing=2;" vertex="1" parent="1">
          <mxGeometry x="746" y="1088.5" width="90" height="35" as="geometry" />
        </mxCell>
        <mxCell id="erhcgMFxfJ_fj9Iem5pS-1848" value="110043" style="rounded=1;whiteSpace=wrap;html=1;shadow=0;labelBackgroundColor=none;strokeColor=none;strokeWidth=3;fillColor=#f5af58;fontFamily=Helvetica;fontSize=14;fontColor=#FFFFFF;align=center;spacing=5;arcSize=7;perimeterSpacing=2;" vertex="1" parent="1">
          <mxGeometry x="630" y="1088.5" width="90" height="35" as="geometry" />
        </mxCell>
        <mxCell id="erhcgMFxfJ_fj9Iem5pS-1849" value="110044" style="rounded=1;whiteSpace=wrap;html=1;shadow=0;labelBackgroundColor=none;strokeColor=none;strokeWidth=3;fillColor=#f5af58;fontFamily=Helvetica;fontSize=14;fontColor=#FFFFFF;align=center;spacing=5;arcSize=7;perimeterSpacing=2;" vertex="1" parent="1">
          <mxGeometry x="520" y="1088.5" width="90" height="35" as="geometry" />
        </mxCell>
        <mxCell id="erhcgMFxfJ_fj9Iem5pS-1850" value="110045" style="rounded=1;whiteSpace=wrap;html=1;shadow=0;labelBackgroundColor=none;strokeColor=none;strokeWidth=3;fillColor=#f5af58;fontFamily=Helvetica;fontSize=14;fontColor=#FFFFFF;align=center;spacing=5;arcSize=7;perimeterSpacing=2;" vertex="1" parent="1">
          <mxGeometry x="396" y="1088.5" width="90" height="35" as="geometry" />
        </mxCell>
        <mxCell id="erhcgMFxfJ_fj9Iem5pS-1851" value="110046" style="rounded=1;whiteSpace=wrap;html=1;shadow=0;labelBackgroundColor=none;strokeColor=none;strokeWidth=3;fillColor=#f5af58;fontFamily=Helvetica;fontSize=14;fontColor=#FFFFFF;align=center;spacing=5;arcSize=7;perimeterSpacing=2;" vertex="1" parent="1">
          <mxGeometry x="280" y="1088.5" width="90" height="35" as="geometry" />
        </mxCell>
        <mxCell id="erhcgMFxfJ_fj9Iem5pS-1852" value="110042" style="rounded=1;whiteSpace=wrap;html=1;shadow=0;labelBackgroundColor=none;strokeColor=none;strokeWidth=3;fillColor=#f5af58;fontFamily=Helvetica;fontSize=14;fontColor=#FFFFFF;align=center;spacing=5;arcSize=7;perimeterSpacing=2;" vertex="1" parent="1">
          <mxGeometry x="156" y="1088.5" width="90" height="35" as="geometry" />
        </mxCell>
        <mxCell id="erhcgMFxfJ_fj9Iem5pS-1853" value="110043" style="rounded=1;whiteSpace=wrap;html=1;shadow=0;labelBackgroundColor=none;strokeColor=none;strokeWidth=3;fillColor=#f5af58;fontFamily=Helvetica;fontSize=14;fontColor=#FFFFFF;align=center;spacing=5;arcSize=7;perimeterSpacing=2;" vertex="1" parent="1">
          <mxGeometry x="40" y="1088.5" width="90" height="35" as="geometry" />
        </mxCell>
        <mxCell id="erhcgMFxfJ_fj9Iem5pS-1854" value="110065" style="rounded=1;whiteSpace=wrap;html=1;shadow=0;labelBackgroundColor=none;strokeColor=none;strokeWidth=3;fillColor=#f5af58;fontFamily=Helvetica;fontSize=14;fontColor=#FFFFFF;align=center;spacing=5;arcSize=7;perimeterSpacing=2;" vertex="1" parent="1">
          <mxGeometry x="460" y="1158.5" width="90" height="35" as="geometry" />
        </mxCell>
        <mxCell id="erhcgMFxfJ_fj9Iem5pS-1861" value="110067" style="rounded=1;whiteSpace=wrap;html=1;shadow=0;labelBackgroundColor=none;strokeColor=none;strokeWidth=3;fillColor=#66FF66;fontFamily=Helvetica;fontSize=14;fontColor=#FFFFFF;align=center;spacing=5;arcSize=7;perimeterSpacing=2;" vertex="1" parent="1">
          <mxGeometry x="560" y="1225.5" width="90" height="30" as="geometry" />
        </mxCell>
        <mxCell id="erhcgMFxfJ_fj9Iem5pS-1862" value="110066" style="rounded=1;whiteSpace=wrap;html=1;shadow=0;labelBackgroundColor=none;strokeColor=none;strokeWidth=3;fillColor=#66FF66;fontFamily=Helvetica;fontSize=14;fontColor=#FFFFFF;align=center;spacing=5;arcSize=7;perimeterSpacing=2;" vertex="1" parent="1">
          <mxGeometry x="460" y="1225.5" width="86" height="30" as="geometry" />
        </mxCell>
        <mxCell id="erhcgMFxfJ_fj9Iem5pS-1865" value="&lt;font color=&quot;#ffffff&quot;&gt;BCS&lt;/font&gt;" style="shape=cylinder3;whiteSpace=wrap;html=1;boundedLbl=1;backgroundOutline=1;size=15;fillColor=#0000FF;" vertex="1" parent="1">
          <mxGeometry x="670" y="1205" width="60" height="80" as="geometry" />
        </mxCell>
        <mxCell id="erhcgMFxfJ_fj9Iem5pS-1866" value="110064" style="rounded=1;whiteSpace=wrap;html=1;shadow=0;labelBackgroundColor=none;strokeColor=none;strokeWidth=3;fillColor=#f5af58;fontFamily=Helvetica;fontSize=14;fontColor=#FFFFFF;align=center;spacing=5;arcSize=7;perimeterSpacing=2;" vertex="1" parent="1">
          <mxGeometry x="275" y="1158.5" width="90" height="35" as="geometry" />
        </mxCell>
        <mxCell id="erhcgMFxfJ_fj9Iem5pS-1867" value="110063" style="rounded=1;whiteSpace=wrap;html=1;shadow=0;labelBackgroundColor=none;strokeColor=none;strokeWidth=3;fillColor=#f5af58;fontFamily=Helvetica;fontSize=14;fontColor=#FFFFFF;align=center;spacing=5;arcSize=7;perimeterSpacing=2;" vertex="1" parent="1">
          <mxGeometry x="150" y="1158.5" width="90" height="35" as="geometry" />
        </mxCell>
        <mxCell id="erhcgMFxfJ_fj9Iem5pS-1868" value="110046" style="rounded=1;whiteSpace=wrap;html=1;shadow=0;labelBackgroundColor=none;strokeColor=none;strokeWidth=3;fillColor=#f5af58;fontFamily=Helvetica;fontSize=14;fontColor=#FFFFFF;align=center;spacing=5;arcSize=7;perimeterSpacing=2;" vertex="1" parent="1">
          <mxGeometry x="-90" y="1088.5" width="90" height="35" as="geometry" />
        </mxCell>
        <mxCell id="erhcgMFxfJ_fj9Iem5pS-1869" value="110042" style="rounded=1;whiteSpace=wrap;html=1;shadow=0;labelBackgroundColor=none;strokeColor=none;strokeWidth=3;fillColor=#f5af58;fontFamily=Helvetica;fontSize=14;fontColor=#FFFFFF;align=center;spacing=5;arcSize=7;perimeterSpacing=2;" vertex="1" parent="1">
          <mxGeometry x="-214" y="1088.5" width="90" height="35" as="geometry" />
        </mxCell>
        <mxCell id="erhcgMFxfJ_fj9Iem5pS-1870" value="110043" style="rounded=1;whiteSpace=wrap;html=1;shadow=0;labelBackgroundColor=none;strokeColor=none;strokeWidth=3;fillColor=#f5af58;fontFamily=Helvetica;fontSize=14;fontColor=#FFFFFF;align=center;spacing=5;arcSize=7;perimeterSpacing=2;" vertex="1" parent="1">
          <mxGeometry x="-330" y="1088.5" width="90" height="35" as="geometry" />
        </mxCell>
        <mxCell id="erhcgMFxfJ_fj9Iem5pS-1871" value="110052" style="rounded=1;whiteSpace=wrap;html=1;shadow=0;labelBackgroundColor=none;strokeColor=none;strokeWidth=3;fillColor=#f5af58;fontFamily=Helvetica;fontSize=14;fontColor=#FFFFFF;align=center;spacing=5;arcSize=7;perimeterSpacing=2;" vertex="1" parent="1">
          <mxGeometry x="-450" y="1088.5" width="90" height="35" as="geometry" />
        </mxCell>
        <mxCell id="erhcgMFxfJ_fj9Iem5pS-1872" value="110063" style="rounded=1;whiteSpace=wrap;html=1;shadow=0;labelBackgroundColor=none;strokeColor=none;strokeWidth=3;fillColor=#f5af58;fontFamily=Helvetica;fontSize=14;fontColor=#FFFFFF;align=center;spacing=5;arcSize=7;perimeterSpacing=2;" vertex="1" parent="1">
          <mxGeometry x="40" y="1158.5" width="90" height="35" as="geometry" />
        </mxCell>
        <mxCell id="erhcgMFxfJ_fj9Iem5pS-1873" value="110063" style="rounded=1;whiteSpace=wrap;html=1;shadow=0;labelBackgroundColor=none;strokeColor=none;strokeWidth=3;fillColor=#f5af58;fontFamily=Helvetica;fontSize=14;fontColor=#FFFFFF;align=center;spacing=5;arcSize=7;perimeterSpacing=2;" vertex="1" parent="1">
          <mxGeometry x="-90" y="1158.5" width="90" height="35" as="geometry" />
        </mxCell>
        <mxCell id="erhcgMFxfJ_fj9Iem5pS-1874" value="110063" style="rounded=1;whiteSpace=wrap;html=1;shadow=0;labelBackgroundColor=none;strokeColor=none;strokeWidth=3;fillColor=#f5af58;fontFamily=Helvetica;fontSize=14;fontColor=#FFFFFF;align=center;spacing=5;arcSize=7;perimeterSpacing=2;" vertex="1" parent="1">
          <mxGeometry x="-210" y="1158.5" width="90" height="35" as="geometry" />
        </mxCell>
        <mxCell id="erhcgMFxfJ_fj9Iem5pS-1875" value="110063" style="rounded=1;whiteSpace=wrap;html=1;shadow=0;labelBackgroundColor=none;strokeColor=none;strokeWidth=3;fillColor=#f5af58;fontFamily=Helvetica;fontSize=14;fontColor=#FFFFFF;align=center;spacing=5;arcSize=7;perimeterSpacing=2;" vertex="1" parent="1">
          <mxGeometry x="-330" y="1158.5" width="90" height="35" as="geometry" />
        </mxCell>
        <mxCell id="erhcgMFxfJ_fj9Iem5pS-1876" value="110058" style="rounded=1;whiteSpace=wrap;html=1;shadow=0;labelBackgroundColor=none;strokeColor=none;strokeWidth=3;fillColor=#f5af58;fontFamily=Helvetica;fontSize=14;fontColor=#FFFFFF;align=center;spacing=5;arcSize=7;perimeterSpacing=2;" vertex="1" parent="1">
          <mxGeometry x="-450" y="1158.5" width="90" height="35" as="geometry" />
        </mxCell>
        <mxCell id="erhcgMFxfJ_fj9Iem5pS-1877" value="110053" style="rounded=1;whiteSpace=wrap;html=1;shadow=0;labelBackgroundColor=none;strokeColor=none;strokeWidth=3;fillColor=#f5af58;fontFamily=Helvetica;fontSize=14;fontColor=#FFFFFF;align=center;spacing=5;arcSize=7;perimeterSpacing=2;" vertex="1" parent="1">
          <mxGeometry x="-570" y="1123.5" width="90" height="35" as="geometry" />
        </mxCell>
        <mxCell id="erhcgMFxfJ_fj9Iem5pS-1878" value="STK 1" style="rounded=1;whiteSpace=wrap;html=1;shadow=0;labelBackgroundColor=none;strokeColor=none;strokeWidth=3;fillColor=#2F5B7C;fontFamily=Helvetica;fontSize=16;fontColor=#FFFFFF;align=center;fontStyle=1;spacing=5;arcSize=7;perimeterSpacing=2;" vertex="1" parent="1">
          <mxGeometry x="-870" y="1205" width="310" height="40" as="geometry" />
        </mxCell>
        <mxCell id="erhcgMFxfJ_fj9Iem5pS-1879" value="110054" style="rounded=1;whiteSpace=wrap;html=1;shadow=0;labelBackgroundColor=none;strokeColor=none;strokeWidth=3;fillColor=#66FF66;fontFamily=Helvetica;fontSize=14;fontColor=#FFFFFF;align=center;spacing=5;arcSize=7;perimeterSpacing=2;" vertex="1" parent="1">
          <mxGeometry x="-690" y="1123.5" width="90" height="30" as="geometry" />
        </mxCell>
        <mxCell id="erhcgMFxfJ_fj9Iem5pS-1880" value="110056" style="rounded=1;whiteSpace=wrap;html=1;shadow=0;labelBackgroundColor=none;strokeColor=none;strokeWidth=3;fillColor=#66FF66;fontFamily=Helvetica;fontSize=14;fontColor=#FFFFFF;align=center;spacing=5;arcSize=7;perimeterSpacing=2;" vertex="1" parent="1">
          <mxGeometry x="-790" y="1123.5" width="86" height="30" as="geometry" />
        </mxCell>
        <mxCell id="erhcgMFxfJ_fj9Iem5pS-1881" value="110055" style="rounded=1;whiteSpace=wrap;html=1;shadow=0;labelBackgroundColor=none;strokeColor=none;strokeWidth=3;fillColor=#66FF66;fontFamily=Helvetica;fontSize=14;fontColor=#FFFFFF;align=center;spacing=5;arcSize=7;perimeterSpacing=2;" vertex="1" parent="1">
          <mxGeometry x="-690" y="1163.5" width="90" height="30" as="geometry" />
        </mxCell>
        <mxCell id="erhcgMFxfJ_fj9Iem5pS-1882" value="110057" style="rounded=1;whiteSpace=wrap;html=1;shadow=0;labelBackgroundColor=none;strokeColor=none;strokeWidth=3;fillColor=#66FF66;fontFamily=Helvetica;fontSize=14;fontColor=#FFFFFF;align=center;spacing=5;arcSize=7;perimeterSpacing=2;" vertex="1" parent="1">
          <mxGeometry x="-790" y="1163.5" width="86" height="30" as="geometry" />
        </mxCell>
      </root>
    </mxGraphModel>
  </diagram>
</mxfile>
